<svg xmlns="http://www.w3.org/2000/svg" version="1.1" viewBox="-5.0 -10.0 110.0 135.0">
 <path d="m45.77 20.062 8.457 0.003906v0.003906c1.5156 0.007813 2.8203 0.89844 3.4375 2.1797v0.003906l-15.324-0.003906-0.007813 0.003906c0.62109-1.2891 1.9258-2.1758 3.4375-2.1914zm-21.047 5.3867v0.003906h50.551v7.0938h-50.551v-7.0977 0.003906zm13.32 22.574v21l-1.8828 0.003906v-20.996zm25.797 0v21l-1.8867 0.003906v-20.996zm-12.898 0v21.004h-1.8867v-20.996zm-3.4805-3.1953v0.007813h-0.023438c-0.41406 0-0.8125 0.16406-1.1094 0.46094s-0.46484 0.70312-0.46484 1.1289v24.199c0 0.42188 0.16797 0.82812 0.46484 1.1289 0.30078 0.29688 0.70703 0.46484 1.1328 0.46484v0.003906l5.0781-0.003906c0.88281 0 1.5977-0.71484 1.5977-1.5977v-24.195c0-0.87891-0.71484-1.5938-1.5977-1.5977zm-12.898 0v0.007813h-0.023438c-0.41406 0-0.8125 0.16406-1.1055 0.46094-0.30078 0.29688-0.46875 0.70312-0.46875 1.1289v24.199c0 0.42188 0.16797 0.82812 0.46875 1.1289 0.29688 0.29688 0.70312 0.46484 1.1289 0.46484v0.003906l5.0781-0.003906c0.88281 0 1.5977-0.71484 1.5977-1.5977v-24.195c0-0.87891-0.71484-1.5938-1.5977-1.5977zm25.797 0-0.003906 0.003906v0.003907h-0.019531c-0.41797 0-0.8125 0.16406-1.1094 0.46094-0.29687 0.29688-0.46875 0.70312-0.46875 1.1289v24.199c0 0.42188 0.17188 0.82812 0.46875 1.1289 0.30078 0.29688 0.70703 0.46484 1.1289 0.46484l0.003906 0.003906 5.0781-0.003906c0.87891 0 1.5938-0.71484 1.5938-1.5977v-24.195c0-0.87891-0.71484-1.5938-1.5938-1.5977zm11.562-9.0859v40.363c-0.023437 2.1133-1.7461 3.8203-3.8633 3.8203h-36.164c-2.1133-0.023437-3.8203-1.7422-3.8203-3.8633v-40.32zm-17.691-18.875-8.4648 0.003906v0.003906c-3.3164 0.015625-6.0898 2.2852-6.8242 5.375v0.003906l-15.812-0.003906c-0.42578 0-0.83203 0.16797-1.1328 0.46875-0.29688 0.30078-0.46484 0.70703-0.46484 1.1289v10.297c0 0.42578 0.16797 0.83203 0.46484 1.1289 0.30078 0.30078 0.70703 0.46875 1.1328 0.46875h1.75v40.508c0.074219 3.8203 3.1797 6.8438 7.0117 6.8711h36.355c3.8203-0.070313 6.8438-3.1797 6.8711-7.0117v-40.367h1.7539c0.87891 0 1.5977-0.71484 1.5977-1.5977v-10.297c0-0.87891-0.71875-1.5977-1.5977-1.5977h-15.812l-0.003906 0.003906c-0.73047-3.0938-3.5078-5.3633-6.8242-5.3867z"/>
 </svg>