<svg width="37" height="37" viewBox="0 0 37 37" fill="none" xmlns="http://www.w3.org/2000/svg">
    <path fill-rule="evenodd" clip-rule="evenodd" d="M20.85 23.35L34.1 36.55L36.6 34.05L23.3 20.9C24.2 19.7333 24.8833 18.4833 25.35 17.15C25.8167 15.8167 26.05 14.4333 26.05 13C26.05 9.4 24.7833 6.33333 22.25 3.8C19.7167 1.26667 16.65 0 13.05 0C9.45 0 6.375 1.26667 3.825 3.8C1.275 6.33333 0 9.4 0 13C0 16.6 1.275 19.6667 3.825 22.2C6.375 24.7333 9.48333 26 13.15 26C14.65 26 16.0667 25.7667 17.4 25.3C18.7333 24.8333 19.8833 24.1833 20.85 23.35ZM19.825 19.775C17.975 21.6583 15.7333 22.6 13.1 22.6C10.4 22.6 8.11667 21.6583 6.25 19.775C4.38333 17.8917 3.45 15.6333 3.45 13C3.45 10.3667 4.38333 8.10833 6.25 6.225C8.11667 4.34167 10.4 3.4 13.1 3.4C15.7333 3.4 17.975 4.34167 19.825 6.225C21.675 8.10833 22.6 10.3667 22.6 13C22.6 15.6333 21.675 17.8917 19.825 19.775Z" fill="#000000"/>
</svg>
