<svg xmlns="http://www.w3.org/2000/svg" xmlns:xlink="http://www.w3.org/1999/xlink" version="1.1" x="0px" y="0px" viewBox="0 0 100 125" style="enable-background:new 0 0 100 100;" xml:space="preserve"><g><path d="M95.98,35.94V25.71c0-0.02-0.01-0.03-0.01-0.04c0-0.05-0.02-0.09-0.03-0.14c-0.03-0.22-0.09-0.42-0.2-0.6   c-0.02-0.03-0.01-0.07-0.03-0.1L85.64,9.63V1.6c0-0.88-0.72-1.6-1.6-1.6H15.96c-0.88,0-1.6,0.72-1.6,1.6v8.03L4.3,24.83   c-0.02,0.03-0.02,0.07-0.03,0.1c-0.11,0.18-0.17,0.38-0.2,0.6c-0.01,0.05-0.03,0.09-0.03,0.14c0,0.01-0.01,0.03-0.01,0.04v10.23   c0,2.84,1.94,5.21,4.55,5.92v44.75H5.63c-0.88,0-1.6,0.72-1.6,1.6V98.4c0,0.88,0.72,1.6,1.6,1.6h88.75c0.88,0,1.6-0.72,1.6-1.6   V88.22c0-0.88-0.72-1.6-1.6-1.6h-2.96V41.87C94.03,41.16,95.98,38.78,95.98,35.94z M92.77,35.94c0,1.63-1.32,2.95-2.95,2.96   c0,0-0.01,0-0.01,0c0,0-0.01,0-0.01,0h-5.66c-1.63,0-2.96-1.33-2.96-2.96v-8.63h11.59V35.94z M77.98,35.94   c0,1.63-1.33,2.96-2.96,2.96h-5.67c-1.63,0-2.96-1.33-2.96-2.96v-8.63h11.59V35.94z M63.19,35.94c0,1.63-1.33,2.96-2.96,2.96h-5.67   c-1.63,0-2.96-1.33-2.96-2.96v-8.63h11.59V35.94z M48.4,35.94c0,1.63-1.33,2.96-2.96,2.96h-5.67c-1.63,0-2.96-1.33-2.96-2.96v-8.63   H48.4V35.94z M33.61,35.94c0,1.63-1.33,2.96-2.96,2.96h-5.67c-1.63,0-2.96-1.33-2.96-2.96v-8.63h11.59V35.94z M60.06,11.71   l0.53,2.39l2.21,10.01H51.6v-12.4H60.06z M71.65,11.71l5.47,12.4H66.08l-0.53-2.39l-2.21-10.01H71.65z M48.4,24.11h-11.2   l2.21-10.01l0.53-2.39h8.46V24.11z M34.45,21.72l-0.53,2.39H22.88l5.47-12.4h8.31L34.45,21.72z M80.63,24.11l-5.47-12.4h8.03   l8.21,12.4H80.63z M17.57,3.2h64.87v5.31H72.7H61.35H50H38.66H27.31h-9.74V3.2z M16.82,11.71h8.03l-5.47,12.4H8.61L16.82,11.71z    M7.23,35.94v-8.63h11.59v8.63c0,1.63-1.33,2.96-2.96,2.96H10.2c0,0-0.01,0-0.01,0c0,0,0,0,0,0C8.56,38.89,7.23,37.57,7.23,35.94z    M92.77,96.8H7.23v-6.98h2.96h79.63h2.96V96.8z M44.65,86.62H19.9V49.55h24.75V86.62z M47.85,86.62V47.95c0-0.88-0.72-1.6-1.6-1.6   H18.3c-0.88,0-1.6,0.72-1.6,1.6v38.67h-4.91V42.1h4.07c1.81,0,3.43-0.8,4.56-2.05c1.13,1.25,2.74,2.05,4.56,2.05h5.67   c1.81,0,3.43-0.8,4.56-2.05c1.13,1.25,2.74,2.05,4.56,2.05h5.67c1.81,0,3.43-0.8,4.56-2.05c1.13,1.25,2.74,2.05,4.56,2.05h5.67   c1.81,0,3.43-0.8,4.56-2.05c1.13,1.25,2.74,2.05,4.56,2.05h5.67c1.81,0,3.43-0.8,4.56-2.05c1.13,1.25,2.74,2.05,4.56,2.05h4.07   v44.51H47.85z"/><path d="M71.67,51.54c0.64-0.61,0.66-1.62,0.05-2.26c-0.61-0.64-1.63-0.66-2.26-0.05L55.68,62.39c-0.64,0.61-0.66,1.62-0.05,2.26   c0.31,0.33,0.74,0.49,1.16,0.49c0.4,0,0.8-0.15,1.11-0.44L71.67,51.54z"/><path d="M83.54,50.41L58.14,74.7c-0.64,0.61-0.66,1.62-0.05,2.26c0.31,0.33,0.74,0.49,1.16,0.49c0.4,0,0.8-0.15,1.11-0.44   l25.41-24.28c0.64-0.61,0.66-1.62,0.05-2.26C85.2,49.82,84.18,49.8,83.54,50.41z"/></g></svg>